<svg version="1.1" xmlns="http://www.w3.org/2000/svg" xmlns:xlink="http://www.w3.org/1999/xlink" preserveAspectRatio="xMidYMid meet" viewBox="0 0 71 48" width="71" height="48"><defs><path d="M5.32 48C2.38 48 0 45.54 0 42.51C0 41.81 0 38.31 0 32L71 32C71 38.31 71 41.81 71 42.51C71 45.54 68.62 48 65.68 48C53.61 48 11.35 48 5.32 48Z" id="a32TuNgY3T"></path><path d="M0 32L71 32L71 16L0 16L0 32Z" id="a2wpoFIHM6"></path><path d="M5.32 0C11.35 0 59.65 0 65.68 0C68.62 0 71 2.46 71 5.49C71 6.19 71 9.69 71 16L0 16L0 5.49C1.59 1.83 3.36 0 5.32 0Z" id="edu8ynJyo"></path></defs><g><g><g><use xlink:href="#a32TuNgY3T" opacity="1" fill="#464655" fill-opacity="1"></use><g><use xlink:href="#a32TuNgY3T" opacity="1" fill-opacity="0" stroke="#000000" stroke-width="1" stroke-opacity="0"></use></g></g><g><use xlink:href="#a2wpoFIHM6" opacity="1" fill="#ff4b55" fill-opacity="1"></use><g><use xlink:href="#a2wpoFIHM6" opacity="1" fill-opacity="0" stroke="#000000" stroke-width="1" stroke-opacity="0"></use></g></g><g><use xlink:href="#edu8ynJyo" opacity="1" fill="#f6bb42" fill-opacity="1"></use><g><use xlink:href="#edu8ynJyo" opacity="1" fill-opacity="0" stroke="#000000" stroke-width="1" stroke-opacity="0"></use></g></g></g></g></svg>
